<svg width="28" height="28" viewBox="0 0 28 28" fill="none" xmlns="http://www.w3.org/2000/svg">
<path fill-rule="evenodd" clip-rule="evenodd" d="M21.8705 4.54704C21.8711 4.54723 21.8717 4.54754 21.8728 4.54866L23.4502 6.12612C23.4514 6.12724 23.4517 6.12776 23.4519 6.12841C23.4521 6.12902 23.4521 6.12969 23.4519 6.1303C23.4517 6.13093 23.4514 6.13145 23.4502 6.13257L15.5834 13.9994L23.4502 21.8663C23.4514 21.8674 23.4517 21.868 23.4519 21.8686C23.452 21.8692 23.452 21.8699 23.4519 21.8705C23.4517 21.8711 23.4514 21.8717 23.4502 21.8728L21.8728 23.4502C21.8717 23.4514 21.8711 23.4517 21.8705 23.4519C21.8699 23.4521 21.8692 23.4521 21.8686 23.4519C21.868 23.4517 21.8674 23.4514 21.8663 23.4502L13.9994 15.5834L6.13257 23.4502C6.13148 23.4514 6.13093 23.4517 6.1303 23.4519C6.12968 23.452 6.12901 23.452 6.12839 23.4519C6.12779 23.4517 6.12724 23.4514 6.12612 23.4502L4.54866 21.8728C4.54754 21.8717 4.54723 21.8711 4.54704 21.8705C4.54682 21.8699 4.54682 21.8692 4.54704 21.8686C4.54723 21.868 4.54754 21.8674 4.54866 21.8663L12.4155 13.9994L4.54866 6.13257C4.54754 6.13148 4.54723 6.13093 4.54704 6.1303C4.54685 6.12968 4.54685 6.12901 4.54704 6.12839C4.54723 6.12779 4.54754 6.12724 4.54866 6.12612L6.12612 4.54866C6.12724 4.54754 6.12776 4.54723 6.12841 4.54704C6.12902 4.54682 6.12969 4.54682 6.1303 4.54704C6.13093 4.54723 6.13145 4.54754 6.13257 4.54866L13.9994 12.4155L21.8663 4.54866C21.8674 4.54754 21.868 4.54723 21.8686 4.54704C21.8692 4.54685 21.8699 4.54685 21.8705 4.54704H21.8705Z" fill="black"/>
</svg>
