<svg width="25" height="24" viewBox="0 0 25 24" fill="none" xmlns="http://www.w3.org/2000/svg">
<path d="M21.4367 6.87422L17.6258 3.06328C17.3445 2.78203 16.9625 2.625 16.5641 2.625H3.875C3.46016 2.625 3.125 2.96016 3.125 3.375V20.625C3.125 21.0398 3.46016 21.375 3.875 21.375H21.125C21.5398 21.375 21.875 21.0398 21.875 20.625V7.93359C21.875 7.53516 21.718 7.15547 21.4367 6.87422ZM9.5 4.125H15.5V6.75H9.5V4.125ZM12.5 17.1094C10.6367 17.1094 9.125 15.5977 9.125 13.7344C9.125 11.8711 10.6367 10.3594 12.5 10.3594C14.3633 10.3594 15.875 11.8711 15.875 13.7344C15.875 15.5977 14.3633 17.1094 12.5 17.1094ZM12.5 11.8594C11.4641 11.8594 10.625 12.6984 10.625 13.7344C10.625 14.7703 11.4641 15.6094 12.5 15.6094C13.5359 15.6094 14.375 14.7703 14.375 13.7344C14.375 12.6984 13.5359 11.8594 12.5 11.8594Z" fill="white"/>
</svg>
