<svg width="28" height="28" viewBox="0 0 28 28" fill="none" xmlns="http://www.w3.org/2000/svg">
<path d="M6.25 21.5H19.75" stroke="#2B2B2B" stroke-width="1.125" stroke-linecap="round" stroke-linejoin="round"/>
<path d="M6.25 13.25C6.25 12.5427 6.25 12.1895 6.46975 11.9698C6.6895 11.75 7.04275 11.75 7.75 11.75C8.45725 11.75 8.8105 11.75 9.03025 11.9698C9.25 12.1895 9.25 12.5427 9.25 13.25V17.75C9.25 18.4573 9.25 18.8105 9.03025 19.0303C8.8105 19.25 8.45725 19.25 7.75 19.25C7.04275 19.25 6.6895 19.25 6.46975 19.0303C6.25 18.8105 6.25 18.4573 6.25 17.75V13.25ZM11.5 10.25C11.5 9.54275 11.5 9.1895 11.7198 8.96975C11.9395 8.75 12.2927 8.75 13 8.75C13.7073 8.75 14.0605 8.75 14.2802 8.96975C14.5 9.1895 14.5 9.54275 14.5 10.25V17.75C14.5 18.4573 14.5 18.8105 14.2802 19.0303C14.0605 19.25 13.7073 19.25 13 19.25C12.2927 19.25 11.9395 19.25 11.7198 19.0303C11.5 18.8105 11.5 18.4573 11.5 17.75V10.25ZM16.75 8C16.75 7.29275 16.75 6.9395 16.9697 6.71975C17.1895 6.5 17.5427 6.5 18.25 6.5C18.9573 6.5 19.3105 6.5 19.5303 6.71975C19.75 6.9395 19.75 7.29275 19.75 8V17.75C19.75 18.4573 19.75 18.8105 19.5303 19.0303C19.3105 19.25 18.9573 19.25 18.25 19.25C17.5427 19.25 17.1895 19.25 16.9697 19.0303C16.75 18.8105 16.75 18.4573 16.75 17.75V8Z" stroke="#2B2B2B" stroke-width="1.125"/>
</svg>
